<?xml version="1.0" encoding="utf-8"?>
<!-- Generator: Adobe Illustrator 18.1.1, SVG Export Plug-In . SVG Version: 6.00 Build 0)  -->
<svg version="1.1" id="Layer_1" xmlns="http://www.w3.org/2000/svg" xmlns:xlink="http://www.w3.org/1999/xlink" x="0px" y="0px"
	 viewBox="0 0 500 500" enable-background="new 0 0 500 500" xml:space="preserve">
<g id="Circle">
	<circle fill="#E8F27E" cx="183.9" cy="164.4" r="23.2"/>
	<circle fill="#E8F27E" cx="250.3" cy="141" r="41.7"/>
	<circle fill="#E8F27E" cx="337.6" cy="99.7" r="47.9"/>
</g>
<g id="Model">
	<g>
		<g>
			<path d="M145.5,135.1c-0.4-1.1-0.7-2.3-1.3-3.4c-0.4-0.8-1-1.6-1.9-2.2c-0.6,2.4,0.9,5.5-2.4,6.2c-2.3,0.5-4.7-0.2-7.3-0.3
				c0.4,1,0.8,2.2,1.5,3.3c0.6,1.2,1.5,2.2,2.4,3.5c-1.8,1.4-3.8,2.7-2.1,5.4c0.1,0.2-1.1,1.5-1.9,1.8c-1.8,0.6-1.9,1.8-1.6,3.2
				c0.4,1.6,1.5,1.3,2.8,0.9c2.1-0.6,7.6,2.2,8.3,5c0.6,2.1-1.6,5.9-4.3,6.8c-2.2,0.7-4.6,0.8-6.9,1.1c-2.1,0.2-4.3,0.4-5.4,3.2
				c3.6,1.5,5.2,4,3.3,8.1c-0.4,0.2-1.3,0.5-2.2,0.9h0.1c-0.9,0.2-1.8,0.4-2.6,0.5c-4.4,0.8-6.5,3.2-6.7,7.8c0,1.2-0.1,2.6-0.7,3.7
				c-0.9,1.9-1.5,3.4,0.3,5.3c0.6,0.6,0.1,2.7-0.3,3.9c-1.4,3.9-3.1,7.6-4.6,11.2c0.1,0.1-0.2-0.4-0.5-1.1
				c-5.5,4.5-10.1,3.5-13.5-3.2c-0.2,0.3-0.3,0.6-0.5,0.9c0.9,2.4,1.9,4.7,2.8,7c1.4,0.1,2.6,0.2,3.9,0.3c0,2,0,3.8,0,5.4
				c-0.5-1.2-1.2-2.6-1.9-4.1c-0.2,0.1-0.4,0.2-0.6,0.3c1.2,5.5,2.4,11,3.6,16.6c-2.6-7.2-4.8-14.4-7.7-21.3
				c-2.8-6.9-5-14.1-9.6-20.2c-0.3,0.1-0.6,0.3-0.8,0.4c2.6,5,5.1,10.1,7.7,15.2c-6.9,0.7-8.4,8.1-7.6,13.2
				c-0.9,0.2-1.8,0.5-2.5,0.7c-1.1-2-2.1-3.5-2.9-5.2c-0.2-0.4-0.5-1.2-0.3-1.4c1.5-1.9,1.5-4.8,4.3-6.1c3.9-1.8,3.8-7.2,0.1-9.5
				c-1.1-0.7-1.9-1.7-3-2.8c0,3.9,0,7.8,0,11.9c-0.5-0.2-1-0.4-1.1-0.4c-0.6,1.7-0.8,3.9-2,4.7c-0.8,0.6-2.9-0.8-4.5-1.3
				c0.5,0.6,1,1.5,1.8,2.6c-2.5-0.3-2.5,1.4-2.7,3c-0.2,2-0.6,4-1.5,5.9c0-1.1,0-2.1,0-3.2c-0.1,0-0.3-0.1-0.4-0.1
				c-0.4,1.1-0.7,2.4-1.3,3.4c-0.7,1.1-1.4,2.3-2.4,3.1c-3,2.3-3.4,4.7-1.1,8c0.4-0.3,0.8-0.5,1.4-0.9c0,0.3,0.1,0.5,0,0.7
				c-2.4,5.1-4.8,10.1-7.1,15.2c-0.3,0.7-0.7,1.4-1,2.2c-2.1,5.2-3.8,10.6-6.5,15.5c-1.5,2.7-1.5,6.9-5.9,7.3
				c0.5,1.1,0.8,1.8,1.2,2.5c-1.9-0.6-3-3.5-5.5-0.6c-0.7-2.2,1.1-5.9-3.8-4.6c1.5-2.2,2.5-4.1-0.1-5.8c-0.3-0.2-0.1-1.2-0.1-1.8
				c0-0.9,0.1-1.8,0.1-2.7c-1,0-2,0-3.4,0c0.3-0.6,0.6-1.3,1-2.3c-0.2-0.3-0.6-0.9-0.7-1.2c0.2-3,0.4-5.6,0.7-8.3
				c-0.1,0-0.8,0-2.2,0c0.2-3,0.4-6.1,0.6-9.2c1.1,0,1.9,0,2.7,0c0.1-0.4,0.2-0.7,0.1-0.9c-3.3-4.3-0.4-8.4,0.7-12.4
				c0.8-2.9,2.2-5.7,3.4-8.5c2.6-4.4,5.1-8.9,7.7-13.3c-3.6,3.8-6.5,8.1-7.7,13.3c-1.3,2.3-2.6,4.7-4,7c-0.8,1.3-1.9,2.4-2.7,3.7
				c-0.3,0.5-0.5,1.1-0.6,1.7c-0.9,3.9-1.6,7.8-2.6,11.6c-0.7,2.5-4.7,5.3-7.3,5.4c-0.2,0-0.4-0.3-0.5-0.3c1.9-3.9,4.1-7.6,5.5-11.6
				c1.3-4,1.8-8.2,2.7-12.7c-0.9,0.3-1.4,0.4-1.3,0.4c-1.1-1.6-2.1-3-3.1-4.5c0,0,0,0,0.1,0c-0.7-1.1-1.6-2.1-1.9-3.2
				c-0.4-1.4-0.3-3-0.4-4.5c1.4,0,2.8-0.2,4.2-0.1c0.9,0.1,1.8,0.8,3.5,1.7c-1.4-4.7,0.2-7.8,3.6-10.6c-0.3,0.8-0.5,1.2-0.7,1.7
				c1.8-2.4,5.9-2.4,6.5-6.5c-4.3,0.3-7.7,4.2-12.3,2.4c-0.9,0.9-2,2-3.1,3.2c-2.7,1-3,3.5-4.1,5.5c0.3,0.2,0.5,0.3,0.8,0.5
				c1.1-2,2.2-4,3.3-6c1.2,2.1,0.3,3.7-1.3,5.1c-1.1,1-2.4,1.9-3.6,2.8c-0.2-0.1-0.5-0.2-0.7-0.3c1.5-3.5,3-7,4.5-10.7
				c0.2,0.2-0.1-0.1-0.5-0.4c3.4-2.2,6.7-4.5,10-6.7c-0.1-0.1-0.1-0.2-0.2-0.3c-1.3,0.6-2.7,1.2-4,1.8c-0.1-0.2-0.2-0.3-0.2-0.5
				c8.5-4.8,17.1-9.6,25.9-14.6c-1.2-0.4-2.4-0.9-3.6-1.3c0-0.1,0-0.2,0-0.4c3.8,0.3,7.6,0.5,11.6,0.8c-0.5-3.2-3.8-2-5.5-3.7
				c0.9-0.2,1.6-0.4,1.9-0.5c-6.2-5.3-8.9-12-6.8-20.5c-4.3,2.5-4.1,7.4,0.5,16.2c-0.2,0.1-0.5,0.2-0.7,0.3
				c-1.2-2.5-2.9-4.9-3.4-7.5c-0.4-2.5-0.1-5.5,0.9-7.9c1.1-2.7-0.1-3.9-1.8-5.4c-2.4-2.2-5.1-4.4-6.6-7.2c-3.5-6.2-1-12.2,2-17.9
				c1.8-3.4,3.3-7,5.2-10.2c3.5-5.8,4.6-12.2,5.6-18.7c0.2-1.1,0.6-2.1,1-3.1c0.9,0,1.8,0,2.7,0c-2.6,1.5-2.2,3.8-1.7,6.1
				c0.6-2.5,4.4-3,3.9-6.1c25.1,0,50.1,0,75.2,0c2.5,6.8,5.1,13.6,7.6,20.4c0.7,2,1.1,4.1,1.1,6.3c-1.1-3.3-2.3-6.6-3.4-9.9
				c-0.3,0-0.7,0.1-1,0.1c0,1.7-0.1,3.5,0,5.2c0.2,2.6,0.6,5.2,1.1,7.8c0.3,1.6,1.3,3.2,1.4,4.8c0.3,2.5,0.1,5,0.1,7.6
				C145.8,134.6,145.7,134.8,145.5,135.1z M130.6,131.1c1.2-4.7,0.3-9.8,6.1-12.9c-4.7-1.9-8.5-3.5-12.4-5c-2-0.8-4-1.6-6.1-2
				c-1-0.2-2.4,0.2-3.1,0.9c-0.5,0.5-0.6,1.9-0.3,2.7c0.2,0.7,1.2,1.2,2,2c-1.4,2-2.9,4.1-4.6,6.5c2.3,0,4.5-0.1,6.7,0
				s3.9,0.8,4.4,3.4C123.9,129.6,127.6,131.5,130.6,131.1z M108.4,147.7c-1.8-0.9-3.5-1.6-5.2-2.5c-1.4,2.1,0.1,2.7,1.4,3
				c3.8,0.8,6.2,3.3,8.4,6.3c1.1,1.5,2.6,2.8,4.1,3.8c2.7,1.8,5.2,0.6,6.4-2.3c1.2-3,1.3-5.4-1.5-7.5c-0.6-0.4-0.7-1.5-1.3-2
				c-1.1-1.1-2.2-2.7-3.5-3.1C113.7,142.4,109.8,144.6,108.4,147.7z M49.7,125.1c-0.1-0.1-0.2-0.2-0.3-0.3c-0.7,0.6-1.7,1.1-2.2,1.9
				c-0.7,1.2-1.1,2.6-1.8,3.9c-1.8,3.6-2,7.2,0.5,10.4c2.1,2.7,4.6,5.1,6.9,7.5c0.7,0.7,1.7,1.2,2.5,1.8c0.2-0.1,0.5-0.3,0.7-0.4
				c-1-2.9,0.2-6.1-2.5-8.9c-1.5-1.5-2.5-4-2.8-6.2c-0.4-3.9-1-8,0.6-11.9c0.1-0.1-0.1-0.4-0.3-0.9
				C50.5,123.3,50.1,124.2,49.7,125.1z M68.6,168.4c0.2-0.2,0.5-0.4,0.7-0.6c-0.5-5.6-5.9-7.2-9.1-10.7c-0.1,1.2,0.3,2.2,0.3,3.3
				c0.1,1.2-0.1,2.5-0.2,3.7c-0.1,3.8,3.5,6,7.1,4.3c-0.3-0.7-0.6-1.4-0.9-2.1c0.2-0.1,0.3-0.3,0.5-0.4
				C67.6,166.8,68.1,167.6,68.6,168.4z M118.3,131.3c0-0.4,0-0.7,0-1.1c-4-4.1-9-4.5-12.6-0.9c-0.6,0.6-0.8,1.6-1.1,2.5
				c1,0.1,1.9,0.3,2.9,0.2c1.7-0.1,3.4-0.6,5.1-0.7C114.6,131.2,116.5,131.3,118.3,131.3z M100.9,181.3c-0.3,0.2-0.5,0.3-0.8,0.5
				c2.3,4.4,4.6,8.7,6.9,13.1c0.2-0.1,0.5-0.3,0.7-0.4C107,189.3,104.5,185,100.9,181.3z M100,184.9c0.5,6.6,4,10.8,7.8,14.7
				c0.2-0.1,0.4-0.2,0.6-0.3C105.8,194.7,103.1,190.1,100,184.9z M106.1,182.8c1.4,2.3,0.8,5.6,3.7,7.3
				C110.9,187.6,109.4,184.6,106.1,182.8z M137.1,159.6c-0.1-0.3-0.2-0.7-0.3-1c-2.4-0.6-5.3,0.5-7,3.3
				C132.6,161,134.9,160.3,137.1,159.6z M134.1,124.4c4.3,1.3,4.6,1.1,4.4-3C136.9,122.5,135.5,123.5,134.1,124.4z M140.6,116.6
				c-0.4-4-1.6-5.3-3.9-4.5C137.8,113.4,139,114.8,140.6,116.6z M104.6,198c-0.3,3,0.3,3.7,3.4,3.9
				C106.8,200.5,105.8,199.4,104.6,198z"/>
			<path d="M214.1,500.5c-3.3-9.7-9.9-16.5-19.5-19.6c-19.2-6.3-38.7-12.1-58-18.1c-0.9-0.3-1.9-0.5-3.8-1.1
				c4.6-4.1,8.7-7.8,12.4-11c4,1.5,7.2,3,10.7,3.8c7,1.6,13.8,3.7,20.5,5.9c2.3,0.8,5,0.5,7.3,1.3c3.1,1,5.9,3.2,9.1,3.8
				c6.7,1.2,12.5,5.8,19.7,4.6c1.2-0.2,3,0.9,3.7,1.9c2.4,3.4,2.3,3.5,6.1,2.4c2.2,3.2,4.3,6.4,7.1,10.4c1.6,0.3,3,2.3,4.4,4.6
				c1.4,2.3,3.8,3.9,5.6,6c1.3,1.6,2.3,3.4,3.4,5.1C233.2,500.5,223.6,500.5,214.1,500.5z"/>
			<path d="M160.4,392.1c3.1,4.6,6.2,9.2,9.5,13.7c1.4,2,3.2,3.7,4.8,5.5c0.9-0.4,1.9-0.8,3.4-1.4c0.1,1.3,0,2.4,0.3,3.2
				c0.4,1,1.3,2.8,1.7,2.7c2.9-0.6,3.7,1.6,5.1,3.7c-0.8-5.6-6.4-8.4-6.7-14c-0.3-0.1-0.8-0.4-1.3-0.7c-0.1-0.1-0.1-0.3-0.4-0.9
				c0.8-0.6,1.8-1.2,2.6-1.8c1.3,0.4,2.4,0.7,3.8,1.1c0.5,0.9,1.1,2,1.8,3.3c-1.3-0.3-2.3-0.4-2.7-0.5c3.2,2.3,6.9,4.9,10.8,7.7
				c0.3-0.1,1.2-0.8,2.2-1.1c2.1-0.5,3.4,1,3.4,2.5c0.3,5.1,0.1,10.1,0.1,14.9c-1.8,0.6-3,1-4.3,1.4c-1.4,0.4-2.6,0.5-3-1.5
				c-0.2-0.7-1-1.6-1.6-1.8c-4.1-1.4-8.3-2.6-12.4-3.9c0-0.2,0.1-0.5,0.1-0.7c0.9-0.2,1.8-0.3,3.5-0.7
				c-14.7-9.7-31.6-14.7-43.8-26.6c-0.8-1.7-1.6-3.5-2.5-5.6c5.3,4.1,10.5,8.1,15.7,12.2c0-0.1,0.1-0.1,0.1-0.2
				c-4.3-4.3-8.7-8.7-13.1-13c1.5-1.8,2.4-2.9,3.7-4.4c-5.9-1.4-7.4-6.7-10.6-10.4c7.1,4.9,15.1,7.5,23.2,11
				c0.6-3.2,2.5-5.5-0.2-7.8c1.3,0.7,2.7,1.5,4.1,2.2c-0.6,0.6-1.2,1.2-2.1,2.2c1,1.8,2.1,3.7,3.2,5.5
				C159.3,389.3,159.9,390.7,160.4,392.1z"/>
			<path d="M111.8,323.1c-0.4,0.5-0.8,1-1.4,1.8c-0.1-0.1,0.1,0.3,0.1,0.3c2.8-0.2,3.8,2,5.2,3.6c0.4,0.4,1.4,0.7,1.9,0.5
				s0.9-1.2,0.8-1.7c-0.2-1.4-0.7-2.7-1.1-4.4c0.4,0,1.5-0.2,1.6,0c1.2,2.4,2.8,4.2,5.2,5.6c2,1.2,3.3,3.7,4.8,5.6
				c2.7,3.5,2.7,3.5-1.6,4.9c-2.3,0.7-4.7,1.2-7,2c-0.7,0.2-1.2,1.2-2,2c-1-0.7-2.8-2.1-3.9,1.4c-1.1-0.7-2.1-1.4-3.5-2.2
				c0,0.8,0,1.3,0,2.1c-1.6-0.2-3.2-0.4-4.7-0.6c-0.1,0.6-0.1,1.4-0.3,3c-1-1.3-1.4-1.9-1.9-2.7c-7.4,1.6-8.8-4.8-11.9-9.6
				c-1.1,5.2,2.5,8.1,4,11.8c3.3,0.5,7.1-2,9.8,2.2c-0.2,0.7-0.5,1.7-0.8,2.7c-0.3,0-0.5-0.1-0.8-0.1c-0.1-0.6-0.3-1.3-0.4-2
				c-2.4,0.1-2.2,1.9-2.4,3.3c-0.2,1.7-0.7,3-3.4,3c2.3-3,0.4-5.3-0.2-7.9c-14.3,0.3-28.6,0.7-43.2,1c0-0.8,0-1.5,0-2.4
				c1.2,0.3,2.1,0.6,3.5,1c-0.6-1.3-1-2-1.3-2.7c2.5-2.7,5.3-2.6,9.8,0.2c1.8-1.3,3.6-2.6,5.3-3.9c1,0.9,1.7,1.5,2.9,2.5
				c-0.2-8.5,4.3-12.3,12.5-12.8c1.2-5.6-1.7-11.4-0.6-17.3c0.4,2,0.7,4,1.1,6c0.7,3.4,1.4,6.9,2.3,10.3c0.3,1.1,1.2,2,2.3,3.5
				c0.5-2.9,0.8-4.9,1.2-6.9c0.3,0,0.6,0,0.9,0c0.2,1.2,0.5,2.3,0.8,3.8c2.1-2.3,4-4.5,5.9-6.6c0.6-0.2,1.2-0.4,1.8-0.7
				c1.6-0.3,3.2-0.6,4.8-0.9c-2.4,1.4-4,3.4-5,5.8c0.3,0.2,0.6,0.4,0.9,0.7c1.4-2.2,2.7-4.3,4.1-6.5
				C109.3,322.4,110.6,322.7,111.8,323.1L111.8,323.1z"/>
			<path d="M26.6,375.1c-2.1-2.1-4.3-4.2-6.5-6.4c-0.4-0.5-0.7-1.2-0.8-1.9c-1-7.2-0.8-14.4,0.2-21.7c0.3-2.2,0.3-4.4,0.5-7.2
				c1.9,2,1.9,3.9,1.7,5.8c-0.5,4.7-1,9.5-1.4,14.2c-0.1,1.7,0.2,3.4,0.8,5.1c0.3-2.9,0.4-5.9,0.8-8.8c0.9-6.2,1.8-12.4,2.9-18.5
				c0.5-2.6,1.5-5.1,2.2-7.7c0.4-1.7,0.3-3.4,0.7-5.1c0.3-1.4,0.9-2.7,1.6-4c0.6-1.6-2.3-3.3,0.4-5c0.7,0.5,1.5,1,2.9,1.8
				c-0.8-3.9-3.5-6.8-2.6-11c2.8,3.7,5.3,7.1,8.3,11.1c-1.8-0.1-2.7-0.2-3.5-0.2c-0.7,2.4-1.3,4.8-2,7.1c-0.3,0.9-0.9,1.7-0.9,2.5
				c-0.2,5.2,0,10.4-0.4,15.6c-0.3,4.3-1.2,8.6-1.8,12.9c-0.1,0.7-0.5,1.4-0.4,2.1c0.7,4,1.3,8,2.3,11.9c0.8,3.2,0.4,4.3-2.7,5.4
				C28,373.4,27.3,374.5,26.6,375.1z"/>
			<path d="M200.5,432.8c1.3,0.6,2.6,1.1,3.8,1.7c0.1-0.1,0.1-0.2,0.2-0.4c-1.2-1.1-2.9-1.9-3.3-3.2c-0.4-1.3,0.6-3,1-4.5
				c5.4,0.8,9.8,2.9,14,5.7c3.7,2.4,7.9,4.2,11.9,6.2c0.2,0.1,0.3,0.1,0.5,0.2c3.8,0.9,3.8,0.9,4,5.1c-4.2-1.3-8.5-2.6-12.8-3.9
				c0,0.7,0,0.9,0,0.9c4.7,3.2,4.9,3.8,2.3,9.4c-0.3,0.6-0.6,1.4-0.5,2c0.4,2.4-0.9,3.6-2.3,4.6c-3.1-3-5.9-5.9-9-8.5
				c-1-0.9-2.8-0.8-3.8-1.7c-2.6-2.2-4.8-4.7-8.5-5.3c-1.4-0.2-2.7-2-3.9-3.2c-1.1-1.1-0.2-3.1,1.6-3.7c0.8-0.2,1.6-0.2,2.4-0.4
				C198.9,433.6,199.6,433.2,200.5,432.8z M216.2,439.5c0.1-0.3,0.2-0.6,0.3-0.9c-2.3-1-4.6-1.9-6.9-2.9c-0.1,0.3-0.2,0.5-0.3,0.8
				C211.7,437.5,214,438.5,216.2,439.5z"/>
			<path d="M126.4,178.7c4-0.3,8-0.7,12.7-1.1c5.3-2.7,3.4-9.5,5.7-14.6c0.4,10.2,3.9,20,2.5,30.1c-0.1,0.6-0.2,1.2-0.3,1.8
				c-0.3-6.5,0.2-13.1-3.3-19.1c0.3,3.5,0.6,6.9,0.9,10.9c-0.8-1.6-1.4-2.9-2.4-5c-0.9,2.5-1.5,4.3-1.9,5.5c-1.8,2-3.4,3.5-4.6,5.4
				c-3.2,4.7-8,6.2-12.8,3.7c-2.1-1.1-3.1-2.5-1.9-5C122.9,187.1,124.7,182.8,126.4,178.7C126.5,178.6,126.4,178.7,126.4,178.7z"/>
			<path d="M103.2,322.9c-0.6,0.2-1.2,0.4-1.8,0.7c-2.4-1.8-4.8-3.5-7.4-5.5c0.7-6,1.4-12.7,2.4-19.4c0.1-1,1.2-1.9,1.9-2.8
				c2.5-2.8,5-5.6,7.5-8.3c0.5-0.5,1.2-0.9,1.4-1c0.5,2.6,1.3,5.2,1.5,7.8c0.1,1.3-0.6,2.7-1.1,4c-0.5,1.6-1.2,3.1-1.6,4.7
				c-0.7,2.8-1.2,5.7-1.7,8.7c1.1,0.5,1.9,0.8,3.6,1.5c-3.6,2.1-6.6,3.8-9.7,5.6c0,0.1,0.1,0.2,0.1,0.3c3.4-1.1,6.8-2.2,10.3-3.4
				C106.7,318.4,104.9,320.6,103.2,322.9z"/>
			<path d="M71.9,491.1c-3.3-0.8-7.1,0.5-10-2.8c1-0.7,1.7-1.3,2.9-2.1c-0.7-1.9-1.4-4-2.4-6c-1.5-3.2-4.3-6-2.3-10
				c0.2-0.3,0.1-0.9-0.1-1.3c-1.6-3.5-3.4-7-4.9-10.5c-1-2.4-2.1-4.8-2.5-7.4c-1.4-9.1-2.4-18.3-3.6-27.4c-0.3-2-0.3-4.1-0.2-6.2
				c0.8,13,5.4,25.2,8.7,37.6C60.8,467.6,64.8,479.8,71.9,491.1z"/>
			<path d="M116.6,473.5c-0.9-1.1-1.6-2.3-2.7-3.3c-1.7-1.6-3.5-3-5.2-4.5c-2.2-1.9-4.6-3.5-6.5-5.6c-4-4.4-8.6-8.8-10.6-14.4
				c-3.6-10.3-11-18.4-15.5-28.1c-2.7-5.9-5-11.9-7.5-17.9c-0.2-0.4-0.1-0.9,0.4-1.5c0.3,0.7,0.7,1.4,1,2.2
				c4.7,13.9,11.9,26.4,20.7,38c6,7.9,12.4,15.4,18.7,23.1c2.7,3.3,5.4,6.5,7.9,9.9c0.3,0.5,0.1,1.3,0.2,2
				C117.2,473.4,116.9,473.5,116.6,473.5z"/>
			<path d="M78.3,404.8c2.7,4.3,5.5,8.4,8,12.8c5.3,9.4,12,17.7,19.1,25.8c4.7,5.4,9.8,10.5,14.6,15.9c1.8,2.1,3.3,4.5,5.3,7.3
				c-1.1-0.2-1.6-0.1-1.9-0.3c-7.4-4.6-13.7-10.3-18.7-17.5c-2.2-3.2-5.2-5.9-7.7-9c-0.6-0.7-1.3-2.1-1-2.8c0.8-2-0.1-3.2-1.1-4.7
				c-4.7-7-9.5-14-14-21.1C79.6,409.3,79.1,407,78.3,404.8L78.3,404.8z"/>
			<path d="M225.3,424.1c1.5-0.3,2.4-0.7,3-0.5c5.7,2.4,11.3,4.8,16.9,7.4c2.1,1,1.2,2.6,0.2,3.8c-2,2.5-4.1,4.8-6.1,7.3
				c-0.3,0.4-0.3,1.3-0.2,2s0.4,1.4,0.3,2.3c-0.9-3-5.3-3.5-5-7.4c0.1-0.8-0.7-1.8-1.2-2.7C230.7,432.4,228.2,428.5,225.3,424.1z"/>
			<path d="M84.7,493.5c-3.4,0.7-6.5,1.3-9.8,1.9c0.4-1.7,0.6-3,1.1-4.9c1.7,1.1,3.1,2,4.6,2.9c1.5-0.9,1.6-2,0.5-3.5
				c-2.2-3-4.4-6.1-6.4-9.3c-0.9-1.5-1.2-3.3-2.2-4.8c-1.9-2.8-4.1-5.3-6-8.1c-1-1.5-1.5-3.3-2.1-5c-0.2-0.6-0.2-1.4,0-2
				c0.4-1.3,0.5-1.2-1-1.7c-0.5-0.2-1.1-0.7-1.3-1.2c-1.7-4.2-3.3-8.3-4.9-12.6c-0.2-0.6,0.1-1.4,0.1-2.1c0.1-1.3,0.5-2.7,0.1-3.9
				c-2.4-8.7-4.3-17.4-4.9-26.5C57.6,441.9,68.5,468.5,84.7,493.5z"/>
			<path d="M131.9,461.4c-4-3.2-7.9-5.9-11.2-9.1c-3.9-3.9-7.3-8.3-11-12.5c-1-1.1-2.3-2-3.3-3.2c-0.8-0.9-1.3-2-1.9-3
				c-0.4-0.6-0.6-1.3-1-1.8c-2.1-2.2-4.3-4.4-6.5-6.6c0.3-0.2,0.7-0.4,1-0.6c-0.7-2-1.5-4-2.1-5.7c12.1,13.3,24.4,27,37,40.9
				C132.8,459.9,132.5,460.4,131.9,461.4z"/>
			<path d="M59,420.9c7.1,25.3,20.1,47.4,35.6,68.3c-0.3,0.3-0.5,0.6-0.8,0.9c-0.8-0.5-1.8-0.8-2.3-1.5c-3.5-5.2-6.7-10.6-10.2-15.8
				c-1.7-2.6-3.8-5-6-7.3c-3.4-3.6-5.3-8.6-7.9-13c-0.1-9.8-6.2-17.8-8.2-27c-0.3-1.4-0.7-2.9-1.1-4.3C58.4,421,58.7,420.9,59,420.9
				z"/>
			<path d="M132.4,365.1c0.7-0.2,1.5-0.3,2.3-0.5c-0.7-0.4-1.3-0.8-1.9-1.2c0.1-0.2,0.2-0.5,0.2-0.7c0.8,0.2,1.6,0.2,2.3,0.5
				c4.4,1.9,8.7,3.8,13,5.9c2,1,1.8,2.6,0.6,4.2c0.6,1.1,1.1,2.2,1.8,3.5c-0.9,0.5-1.8,0.9-2.5,1.3c-0.1-0.9-0.2-1.8-0.3-2.7
				c0-0.1-1.1-0.1-1.2,0c-0.2,0.9-0.4,1.9-0.5,2.8c-0.1,0.7-0.2,1.4-0.5,3c-3.7-3-6.9-5.6-10.1-8.1c0.1-0.3,0.2-0.6,0.3-0.8
				c1.8-0.3,3.6-0.6,5.3-0.8c0.1-0.4,0.2-0.8,0.3-1.1C138,369.4,133.8,369.6,132.4,365.1z"/>
			<path d="M71.8,420.5c0.8,1.3,1.9,2.5,2.3,3.9c3,8.9,8.4,16.3,13.8,23.8c6.6,9.2,13.6,18.1,20.4,27.2c1,1.3,1.7,2.9,2.5,4.3
				c-0.3,0.2-0.7,0.5-1,0.7c-0.8-0.8-1.7-1.6-2.3-2.5c-2.4-3.5-4.7-7-7-10.6c-1.6-2.4-3-4.6-6.1-5.7c-1.6-0.6-2.6-3-4.2-4.9
				c-0.7-0.5-1.9-1.3-2.8-2.3c-1-1-1.9-2.2-2.5-3.5c-0.6-1.1-0.8-2.5-1.1-3.7c-0.4-1.2-0.6-2.4-1.1-3.5c-3.3-6.7-6.7-13.3-10-20
				C72.2,422.6,72.1,421.5,71.8,420.5L71.8,420.5z"/>
			<path d="M38.2,353.9c-0.9-0.9-2-1.7-2.5-2.7c-0.4-0.8-0.4-2.1-0.1-3c1.7-4.8,3.7-9.4,5.5-14.2c0.5-1.3,0.9-2.7,1.4-4.1
				c0.8-2,1.7-3.9,2.5-5.9c0.9-2.3,1.1-4.9,4.1-6.1c0.2,0.9,0.4,1.8,0.6,2.8c-0.8,0-1.2,0.1-1.4,0.1c-0.5,2.5-0.9,4.9-1.4,7.5
				c-1.6,0.9-2.2,4.9-0.8,8.3c-0.9-0.7-1.4-1.1-2-1.5c-0.1,0.1-0.3,0.3-0.3,0.4c0.2,5.1-2.4,9.3-4,13.9
				C39.3,351,38.7,352.5,38.2,353.9L38.2,353.9z"/>
			<path d="M137.8,453.4c-13.5-13.3-27-26.7-38.4-42.1c0.2-0.2,0.4-0.4,0.6-0.6c0.4,0.3,0.8,0.7,1.1,1c3.1,2.9,6.4,5.8,9.3,8.9
				c1.6,1.6,2.5,3.8,3.9,5.6c2.1,2.7,4.2,5.4,6.5,7.8c2.3,2.3,4.3,4.8,7.2,6.6c3.8,2.5,6.8,6.4,10.1,9.8c0.5,0.5,0.6,1.5,0.9,2.3
				C138.6,453,138.2,453.2,137.8,453.4z"/>
			<path d="M102,485.4c-1-1.4-2.1-2.8-3.1-4.2c-4.2-5.8-8.4-11.7-12.6-17.5c-0.2-0.2-0.3-0.6-0.5-0.6c-4.8-1.4-6.1-5.8-8.1-9.5
				c-0.2-0.4-0.6-0.7-0.3-1.2c-0.2-1.2-0.2-2.4-0.7-3.5c-3-6.2-6.1-12.4-9.2-18.6c-0.3-0.7-0.4-1.6-0.3-2.4
				c2.2,4.3,3.9,8.9,6.5,12.9c8.6,13.3,17.5,26.5,26.2,39.7c1,1.5,1.9,2.9,2.9,4.4C102.6,485,102.3,485.2,102,485.4z"/>
			<path d="M24.7,323.1c-3-3.1-3.6-5.7-2-8.8c1.1-2.1,2.1-4.3,2.8-6.5c0.4-1.4-0.1-3,0-4.5c0.2-3.5,0.6-7,0.7-10.5
				c0.1-2.8,0.6-3.7,3.4-4.6C30.3,300.1,25.3,310.9,24.7,323.1z"/>
			<path d="M186.5,335.5c-5.3,0-10.7,0-16,0c-2.5,0-5,0.3-7.5,0.3c-1.2,0-2.5-0.5-3.7-0.8c0.1-0.2,0.1-0.4,0.2-0.7
				c4-1.3,8-2.7,12-3.8c1-0.3,2.3,0.1,3.3,0.4c3.1,0.9,6.3,1.9,9.4,2.9c0.8,0.3,1.6,0.5,2.4,0.8
				C186.6,334.9,186.6,335.2,186.5,335.5z"/>
			<path d="M158.6,345.9c0.3-1.3,0.5-2,0.7-2.9c-1.1-0.4-2.1-0.8-3-1.2c0-0.3,0-0.5-0.1-0.8c4.9-2,10-2.8,15.4-2.2
				c-1.5,0.6-3,1.2-4.8,1.9c2,3.3,5.2,1.8,7.5,2.7c0,0.3,0,0.6,0,0.9C169.2,344.8,164.1,345.3,158.6,345.9z"/>
			<path d="M160.4,392.1c-0.6-1.4-1.1-2.8-1.7-4.3c-0.5-1.5-1-3-1.5-4.8c2.3,0.6,4,0.7,4.8-2c0.2-0.7,1.7-1,2.7-1.5
				c0,1.9,0,3.3,0,5.3c-0.4,0.2-1.3,0.8-2.5,1.5c0.2,0.3,0.3,0.8,0.5,1.2c-0.6,0.4-1.1,0.8-2.5,1.8c2.1,0.9,3.6,1.6,5.5,2.4
				c-0.3,0.5-0.7,1.2-1.3,2.3c1.7,2.6,3.6,5.3,5.5,8.1c-0.4,0.3-0.7,0.5-1.1,0.8C166.1,399.3,163.2,395.7,160.4,392.1z"/>
			<path d="M107.5,399.9c-3.4-2.6-7-5-10.2-7.8c-2-1.7-4-2.9-6.6-3.2c-2-0.2-4.5,0.1-6.2-2.9c1.4,0.3,2.2,0.5,3.2,0.7
				c0-0.6,0-1.2,0-1.9c1.2,0.4,2.2,0.7,3.3,1.1c0.1-0.7,0.1-1.2,0.1-1.3c3,0.9,6.2,1.3,9,2.7c2.4,1.2,4.3,3.4,6.4,5.2
				c0.9,0.7,1.7,1.6,2.5,2.4c-0.2,0.2-0.3,0.4-0.5,0.7c-2.4-1.7-5-3.2-7.1-5.3c-3.3-3.4-7.1-3.7-11.3-3.1
				C98.2,388.4,102.3,394.9,107.5,399.9L107.5,399.9z"/>
			<path d="M58.4,486.8c-0.8-1.3-1.9-2.6-2.2-4c-2.5-9.3-4.9-18.6-7.1-28c-1.3-5.6-1.9-11.3-2.9-17c-0.1-0.7-0.1-1.3,0.2-2.1
				c4.3,16.9,4.9,34.7,13.2,50.5C59.2,486.5,58.8,486.7,58.4,486.8z"/>
			<path d="M112.1,396.2c1.4,0.3,2.9,0.2,4,0.9c4.5,2.6,8.7,5.5,12.3,9.4c2.6,2.9,6.1,5,9.2,7.4c0.6,0.5,1.2,1,1.5,1.8
				c-9.1-6.3-18.2-12.6-27.2-18.9C112,396.6,112.1,396.4,112.1,396.2z"/>
			<path d="M82.1,387.9c11.9,2.8,17.1,13.3,25.6,19.7c-0.3,0.3-0.6,0.7-0.8,1c-2.6-2.4-5.3-4.7-7.9-7.1c-1.2-1.1-2.4-2.2-3.7-3.3
				c-0.5-0.4-1.4-0.8-1.5-1.3c-0.9-3.1-3.2-4.6-6.2-5.3c-1.1-0.3-2.3-0.5-3.3-1.2C83.5,389.8,82.9,388.8,82.1,387.9z"/>
			<path d="M69.7,301.9c1.1,0.8,2.1,1.6,3.1,2.4c0.1,1.3,0.2,2.8,0.3,4.8c-3.4-0.2-6.8,1.5-10.2-0.4c-0.6-0.3-0.8-1.2-1.2-1.8
				c0.6-0.4,1.1-0.8,1.7-1c0.8-0.3,1.8-0.3,2.6-0.5C69.2,305,69.2,305,69.7,301.9z"/>
			<path d="M125.2,412.7c6.7,6.3,13.5,12.5,20.2,18.8c-0.1,0.2-0.3,0.3-0.4,0.5c-9.1-8.1-18.2-16.1-27.3-24.2
				c0.1-0.2,0.2-0.3,0.3-0.5c0.6,0.4,1.1,0.8,1.7,1.2c1.5,1,2.6,2.2,4.9,2.1c1.6-0.1,3.2,2.1,4.8,3.2c-0.1,0.2-0.3,0.4-0.4,0.6
				c-1.1-0.8-2.2-1.6-3.4-2.5C125.6,412.2,125.4,412.5,125.2,412.7z"/>
			<path d="M95.3,404.9c-2.1-1-4.2-1.7-6-2.9c-0.8-0.5-1.7-1.9-1.6-2.8c0.3-2.5-1-3.6-3-4.4c-2.5-1-4.8-2.3-5-5.7
				C87.3,392.3,90.4,399.5,95.3,404.9z"/>
			<path d="M146.7,338.7c-0.3,1.7-0.4,2.6-0.6,3.6c0.2,0.1,0.4,0.3,0.6,0.4c1.3-1.5,2.6-3,4-4.7c-0.8-0.5-1.3-0.7-1.7-0.9
				c0.6-1.7,6.6-2.3,9.6-0.4c-2,0.4-3.6,1-5,0.8c-2-0.2-2.5,0.8-2.9,2.4c-1.1,4.5-2.3,5.1-7.3,3.6c0.5-0.8,0.9-1.5,1.4-2.2
				C145.3,340.6,145.8,340,146.7,338.7z"/>
			<path d="M128.9,429.2c-5.2-5-12.1-11.5-19-18.1c0.1-0.1,0.3-0.3,0.4-0.4c3.8,2.9,8,5.4,11.3,8.8S127.4,427.2,128.9,429.2z"/>
			<path d="M67,334.4c1.1,2.3,0,3.9-1.4,5.1c-0.5,0.4-2,0.3-2.5-0.2c-1.3-1.1-2.3-2.5-3.4-3.9c1.4-1.3,2.6-2.5,4.2-4
				c0.2,1.4,0.4,2.4,0.6,3.7C65.2,335,66,334.7,67,334.4z"/>
			<path d="M77.7,380.9c0.1-0.9,0.2-1.7,0.3-2.6c3.1-1.3,6.1-2.5,9.5-4c0.8,1.1,1.6,2.2,2.4,3.3c-0.2,0.1-0.3,0.3-0.5,0.4
				c-1.2-0.3-2.4-0.7-4-1.1c0,1.1,0,1.9,0,3c-1.5-0.3-2.8-0.6-4.1-0.8c0.1,0.2,0.2,0.4,0.3,0.6c-1.2,0.6-2.4,1.3-3.5,1.9
				C78,381.4,77.8,381.2,77.7,380.9z"/>
			<path d="M15.2,264.5c-2-3.5-2.2-8.9-0.5-12.8C17.6,254.1,17.9,258.9,15.2,264.5z"/>
			<path d="M30.9,266.2c-2.3-2.6-5.5-4.3-6.6-7.7c0.2-0.2,0.4-0.5,0.6-0.7c1.6,1.3,3.1,2.5,4.9,3.9c0.5-0.9,1-1.6,1.6-2.7
				c0.8,0.6,1.5,1.1,2.1,1.6C32.7,262.5,31.9,264.1,30.9,266.2z"/>
			<path d="M17.5,321.5c1,2.4,2.1,4.8,3.3,7.6c0.9-1.3,1.6-2.2,2.3-3.1c0.3,0.1,0.5,0.2,0.8,0.2c-0.3,3-0.6,6-0.9,9
				c-0.3,0.1-0.6,0.1-1,0.2c-1.8-4.5-3.6-9-5.4-13.6C16.9,321.7,17.2,321.6,17.5,321.5z"/>
			<path d="M104.4,375.8c1.8,0.7,3.3,2.2,5-0.2c0.5-0.7,2.8-0.1,4.4,0.3c-3.2,2.3-6.1,4.9-10.7,4.4
				C103.5,378.8,103.9,377.4,104.4,375.8z"/>
			<path d="M82.9,263.6c0,3.4,0,6.5,0,10.1c-3.6-3.2-3.3,2-5.6,2.2c-0.1-1-0.6-1.8-0.3-2.3C78.9,270.3,80.8,267.1,82.9,263.6z"/>
			<path d="M97.8,364.2c-0.6-0.3-1.2-0.5-2.2-1c2.8-2.4,3.5-6.1,6.8-7.3c1,2,1.9,3.8,2.7,5.5c-1.3,0.2-2.5,0.5-4.3,0.8
				c0.9-1,1.4-1.6,1.9-2.3C100.2,359,98.3,360.7,97.8,364.2L97.8,364.2z"/>
			<path d="M131.6,433c1.9,0.6,3.3,0.8,4.5,1.4c1,0.5,2.5,1.3,2.6,2.1c0.3,3.8,3.6,5,5.7,7.3c0.5,0.5,1,1.1,1.5,1.6
				c-0.2,0.2-0.4,0.4-0.6,0.5C140.8,441.7,136.3,437.4,131.6,433z"/>
			<path d="M133,348.2c0.3,2.4,0.6,4.5,1,7c-3.3-0.5-3.6-6.1-7.8-4.9C128.5,349.5,130.8,348.8,133,348.2z"/>
			<path d="M68.6,333.9c0.6-1.9,1.1-3.5,1.5-5.1s1-2.6,2.8-2c-0.1,1.8-0.2,3.5-0.3,5.1C72.4,335.1,70.3,334.1,68.6,333.9z"/>
			<path d="M187,338.4c1.5,0.6,2.9,1,3.9,1.7c0.4,0.3,0.3,2.2,0,2.4c-1.3,0.6-2.9,0.8-5,1.3C186.3,341.7,186.6,340.4,187,338.4z"/>
			<path d="M145.5,135.1c0.1-0.2,0.2-0.5,0.4-0.7c1,2.4,2.1,4.8,3.1,7.3c-0.1,0.1-0.2,0.2-0.3,0.3c-0.6-0.6-1.3-1.1-2.2-2
				c0,2.3,0,4.2,0,6.2c0,1.9,1.3,3.9-1,5.5C145.5,146,145.5,140.5,145.5,135.1z"/>
			<path d="M43.1,379.5c-0.4,0.8-0.8,1.6-1.3,2.5c-0.5-0.7-1-1.4-1.6-2.2c1.5-1.3,2.9-2.5,4.3-3.8c2,3.2,2,5.2,0.2,7.2
				c-0.2-1.2-0.4-2.4-0.7-3.6C43.7,379.5,43.4,379.5,43.1,379.5z"/>
			<path d="M74.5,291.6c-1.1-1.3-2.5-2.5-3.1-4c-0.9-1.9-1.2-4.1-1.6-6.2c-0.1-0.4,0.9-1,1.2-1.2c1.4,3.9,2.8,7.5,4.1,11.2
				C74.9,291.5,74.7,291.5,74.5,291.6z"/>
			<path d="M34.4,258c-1.9-1.7-3.9-3.4-6.4-5.6C34.3,253.3,34.7,253.7,34.4,258z"/>
			<path d="M124.2,345.3c10.2-3.8,10.2-3.8,11.7-2.9C132.4,344.6,128.7,346.2,124.2,345.3z"/>
			<path d="M83.7,400.4c-2.2-1.7-4.5-3.2-6.4-5.2c-0.9-1-1-2.8-1.5-4.2c0.4-0.2,0.8-0.4,1.2-0.6C79.2,393.8,81.5,397.1,83.7,400.4
				L83.7,400.4z"/>
			<path d="M56.7,299.2c0.5,2.5,1,4.9,1.7,8c-0.9-1.6-1.6-2.6-2.5-4.2c-0.8,1.4-1.5,2.5-2.1,3.5C52.8,306.1,52.8,306.1,56.7,299.2z"
				/>
			<path d="M150.7,178.9c-0.6-2.7-1.1-5.3-1.7-8c-0.1-0.4-0.8-0.6-1-0.7c0.3-2.6,0.6-5.2,1-8.4c0.8,6.1,1.4,11.6,2.1,17
				C151,178.8,150.8,178.9,150.7,178.9z"/>
			<path d="M73.3,386.3c0.3-1.5,0.3-2.4,0.6-3.2c0.3-0.9,0.8-1.6,1.2-2.4c0.6,0.5,1.7,1.1,1.8,1.6c0.1,1-0.3,2.2-0.9,3
				C75.6,385.9,74.5,385.9,73.3,386.3z"/>
			<path d="M33.3,447.7c-0.1,3-0.3,5.9-0.4,9.3C30.6,452.7,30.6,449.7,33.3,447.7z"/>
			<path d="M136.3,348.3c1.1-0.6,1.8-1,2.8-1.6c0.2,3.1,0.3,5.7,0.5,8.5c-0.6-0.2-1.6-0.5-2.7-0.9c0.5-1.4,0.9-2.6,1.4-4
				C137.6,349.7,137.1,349.2,136.3,348.3z"/>
			<path d="M78.3,404.8c-3-3-5.5-6.2-6.5-10.3c0.3-0.1,0.5-0.3,0.8-0.4C74.5,397.6,76.4,401.2,78.3,404.8L78.3,404.8z"/>
			<path d="M28.2,452.2c0.2-4.1,0.4-8.3,0.6-12.4c0.4,0,0.8,0,1.2,0.1c-0.3,4.1-0.6,8.3-0.9,12.4C28.9,452.2,28.5,452.2,28.2,452.2z
				"/>
			<path d="M101,366.9c0,0.5,0.1,1.1,0.1,1.6c2.9-0.6,3.3,1.8,4.3,3.7c-1.9-0.8-3.8-1.6-6.2-2.7c0.2-0.7,0.6-1.7,0.9-2.8
				C100.4,366.8,100.7,366.8,101,366.9z"/>
			<path d="M164.8,351.3c-2.4,2.8-3.3,3.1-6.5,1.6c2.1-0.8,4.2-1.6,6.2-2.4C164.6,350.8,164.7,351,164.8,351.3z"/>
			<path d="M69.1,315.1c1,3.1,2.1,6.2,3,9.4c0,0.1-0.6,0.5-1.2,0.9c-1-3.6-1.9-6.8-2.8-10.1C68.5,315.2,68.8,315.2,69.1,315.1z"/>
			<path d="M83.7,400.4c2.6,3.9,5.3,7.7,7.9,11.6c-0.2,0.2-0.5,0.3-0.7,0.5C88.7,408.4,84.5,405.5,83.7,400.4L83.7,400.4z"/>
			<path d="M38.2,354c0.8,0.6,1.8,1,2.4,1.8c0.7,1,1,2.2,1.7,3.8c-1.5-0.6-2.9-1.1-3.8-1.4C38.4,356.4,38.3,355.2,38.2,354
				C38.2,353.9,38.2,354,38.2,354z"/>
			<path d="M115.2,365.4c-0.4-0.6-0.8-1.1-1.7-2.2c1.7-0.3,3.4-1.1,4.1-0.6c1.5,1.1,2.4,2.9,3.6,4.4c-0.3,0.3-0.7,0.5-1,0.8
				c-1.1-1.6-2.3-3.1-3.7-5.1C115.9,363.9,115.6,364.6,115.2,365.4z"/>
			<path d="M37.7,450.6c-0.2,3.1-0.4,6.2-0.5,9.4c-0.2,0-0.4,0-0.6,0c0-3.1,0-6.2,0-9.3C36.9,450.6,37.3,450.6,37.7,450.6z"/>
			<path d="M32.8,382.3c0.2-1.5,0.5-3,0.8-4.6c0.9,1.4,1.7,2.7,2.7,4.3c-0.1,0.6-0.3,1.3-0.5,2.1C34.7,383.5,33.7,382.9,32.8,382.3z
				"/>
			<path d="M78.3,300.7c0.9,1.9,1.8,3.8,2.8,5.9c-0.7,0.4-1.3,0.7-2,1.1c-0.5-2.3-1-4.5-1.5-6.6C77.8,301,78,300.9,78.3,300.7z"/>
			<path d="M64.9,394.4c0.5-1.7,1-3.3,1.7-5.4c0.5,0.5,1.5,0.9,1.6,1.5C68.8,393.1,66.7,393.7,64.9,394.4z"/>
			<path d="M126.5,398.9c-2.2,1.4-3.6,0.6-4.8-1.4C124,396.1,125.1,397.7,126.5,398.9z"/>
			<path d="M168.2,387.5c2.1,0.3,3.5,0.5,4.9,0.7c0,0.2,0.1,0.5,0.1,0.7c-1.9,0.4-3.8,0.8-6.3,1.3
				C167.4,389.1,167.9,388.2,168.2,387.5z"/>
			<path d="M46.5,355.3c1,1.2,2.1,2.3,3.3,3.8c-1.1,0.2-1.9,0.4-3.3,0.7c-0.3-1.7-0.5-3.1-0.7-4.5C46,355.4,46.2,355.4,46.5,355.3z"
				/>
			<path d="M97.8,364.2c0.6-0.2,1.2-0.4,2-0.6c-0.9,2.1-1.7,4-2.6,6.1c-0.5-0.3-0.9-0.6-1.4-0.9C96.4,367.2,97.1,365.7,97.8,364.2
				L97.8,364.2z"/>
			<path d="M24.1,379.8c-0.5,0.1-1.2,0.5-1.5,0.3c-0.7-0.6-1.3-1.4-1.9-2.1c0.1-1.1,0.2-2.4,0.3-3.6c0.2-0.1,0.3-0.1,0.5-0.2
				c0.3,1.1,0.6,2.2,1.1,3.2C23.1,378.2,23.7,379,24.1,379.8L24.1,379.8z"/>
			<path d="M111.3,363.8c0.1,1.2,0.2,2.4,0.4,3.7c-1,0.3-2.1,0.6-3.6,1.1c1-2,1.7-3.6,2.5-5.2C110.8,363.6,111.1,363.7,111.3,363.8z
				"/>
			<path d="M116.9,369.5c1.5,1.2,3,2.4,4.6,3.7C118,373.7,118,371,116.9,369.5z"/>
			<path d="M126.3,258.5c2.2,2.7,2.2,3.4,0,6C126.3,262.3,126.3,260.5,126.3,258.5z"/>
			<path d="M111.9,323.1c-0.3-0.6-0.5-1.3-0.9-2.1c1.4-0.7,2.7-1.4,4.1-2.1c0.2,0.3,0.4,0.5,0.6,0.8
				C114.4,320.8,113.1,322,111.9,323.1C111.8,323.1,111.9,323.1,111.9,323.1z"/>
			<path d="M89.8,247.9c-0.3,1.1-0.5,2.2-1,3.2c-0.3,0.5-1.2,0.7-1.8,1c-0.1-0.2-0.3-0.4-0.4-0.6c0.7-1.3,1.4-2.5,2.1-3.8
				C89.1,247.8,89.4,247.8,89.8,247.9z"/>
			<path d="M51.3,376.6c-1,0.9-1.9,1.8-2.9,2.6c-0.2-0.1-0.5-0.2-0.7-0.4c0.1-0.9,0.2-1.8,0.4-3c1-0.1,1.9-0.1,2.8-0.2
				C51.1,376,51.2,376.3,51.3,376.6z"/>
			<path d="M125.4,278.8c-2.9-1.8-1.4-4.1-1.4-6.3c0.3-0.1,0.5-0.1,0.8-0.2c0.1,1,0.2,2,0.3,3C125.2,276.4,125.3,277.5,125.4,278.8z
				"/>
			<path d="M60.3,298.5c-1-0.3-1.7-0.5-2.9-0.9c0.9-1.3,1.6-2.3,2.3-3.3c0.2,0.1,0.5,0.2,0.7,0.2C60.4,295.8,60.3,297,60.3,298.5z"
				/>
			<path d="M108.9,350.7c1.6-0.1,2.9-0.2,4.2-0.2c0,0.3,0,0.5,0.1,0.8c-1.4,0.6-2.7,1.3-4.5,2.1
				C108.8,352.5,108.8,351.7,108.9,350.7z"/>
			<path d="M35.5,279.8c0.3-1.5,0.5-3,0.8-4.6c0.2,0,0.5,0.1,0.7,0.1c0.6,1.6,1.2,3.2-0.6,4.7C36.1,279.9,35.8,279.8,35.5,279.8z"/>
			<path d="M146,162.1c-0.4-2.4-0.8-4.7-1.2-7.1c0.3-0.1,0.6-0.1,0.9-0.2c0.5,2.4,0.9,4.8,1.4,7.1C146.7,162,146.4,162,146,162.1z"
				/>
			<path d="M59,329.5c-1.3,0.3-2.1,0.5-2.9,0.7c-0.2-0.2-0.3-0.3-0.5-0.5c0.7-1,1.4-2,2.1-3c0.2,0.1,0.5,0.1,0.7,0.2
				C58.6,327.6,58.7,328.4,59,329.5z"/>
			<path d="M17.9,251.3c0.7-1.4,1.5-2.9,2.2-4.3c0.3,0.2,0.6,0.3,0.9,0.5C21.5,249.5,19.8,250.5,17.9,251.3z"/>
			<path d="M195.4,405.9c-0.6-1.1-1-2.4-1.8-3.4c-0.7-0.9-1.8-1.6-2.5-2.5C193.7,400.1,194.9,401.7,195.4,405.9z"/>
			<path d="M89.4,254.9c0.7-0.9,1.5-1.8,2.2-2.8c0.3,0.1,0.6,0.2,0.8,0.3c-0.1,0.7,0.1,1.7-0.3,2.1c-0.4,0.6-1.4,0.8-2.1,1.1
				C89.9,255.5,89.7,255.2,89.4,254.9z"/>
			<path d="M101.4,381c-0.6-0.3-1.7-0.4-1.8-0.8c-0.2-0.8,0.2-1.8,0.3-2.7c0.3-0.1,0.5-0.1,0.8-0.2c0.5,1,0.9,1.9,1.4,2.9
				C101.9,380.5,101.7,380.8,101.4,381z"/>
			<path d="M125.4,369c-0.8-1.8-1.5-3.4-2.3-5C125.7,363.7,126,364.2,125.4,369z"/>
			<path d="M176.7,390.3c-1.2,0.7-2.5,1.3-3.8,2c-0.6-2.6-0.1-2.9,3.4-2.7C176.4,389.8,176.5,390,176.7,390.3z"/>
			<path d="M71.8,420.5c-2.3-2-3.2-4.7-3.3-7.8C69.6,415.3,70.7,417.9,71.8,420.5L71.8,420.5z"/>
			<path d="M24.2,379.9c0.5-0.4,1-0.9,1.5-1.3c0.8,1.3,1.4,2.4,2.2,3.7c-0.3,0.1-0.9,0.4-1.4,0.6C25.6,381.7,24.9,380.8,24.2,379.9
				C24.1,379.8,24.2,379.9,24.2,379.9z"/>
			<path d="M107.5,399.9c2.4,1.4,4.8,2.8,7.3,4.2c-0.2,0.3-0.4,0.6-0.6,0.9C111.9,403.3,109.7,401.6,107.5,399.9L107.5,399.9z"/>
			<path d="M51.8,400.4c0.2,2.5,0.4,5.1,0.6,7.6c-0.3,0-0.6,0-0.9,0.1c-0.1-2.5-0.3-5.1-0.4-7.6C51.3,400.4,51.6,400.4,51.8,400.4z"
				/>
			<path d="M152.7,143.4c0.7,2.4,1.4,4.7,2.1,7.1c-0.2,0.1-0.5,0.2-0.7,0.2c-0.7-2.3-1.5-4.7-2.2-7
				C152.2,143.6,152.4,143.5,152.7,143.4z"/>
			<path d="M17.3,377.7c-0.2-1.7-0.3-2.9-0.5-4.5C19.7,375,19.7,375.1,17.3,377.7z"/>
			<path d="M30.8,281.5c-0.2,1.6-0.5,3.2-0.7,4.8c-0.4-0.1-0.8-0.1-1.2-0.2c0.4-1.6,0.7-3.2,1.1-4.7
				C30.2,281.4,30.5,281.4,30.8,281.5z"/>
			<path d="M56.9,287.1c-0.5,1.3-1,2.6-1.5,4c-0.3-0.1-0.6-0.2-1-0.3c0.3-1.4,0.7-2.8,1-4.1C55.9,286.8,56.4,286.9,56.9,287.1z"/>
			<path d="M116.7,354.6c0.9-0.8,1.6-1.3,2.7-2.3c-0.2,1.9-0.3,3.2-0.4,4.8C118.1,356.3,117.5,355.6,116.7,354.6z"/>
		</g>
	</g>
</g>
<g id="Hat">
	<g>
		<g>
			<path d="M137.3,114.9c-2.2-1.1-4.4-2.2-6.7-3.1c-2.8-1-4.4-3.4-6.3-5.5c-2.2-2.4-4.7-4.7-7.3-6.6c-3.5-2.4-7.2-4.6-11.2-6.2
				c-2.9-1.2-5.8-1-8.8-0.9c-0.2,0-0.4,0.1-0.6,0.2c-8.4,3.2-16.4,7-24,11.5c-1.6,0.9-2.9,2.3-4.4,3.5c-5.3,4.3-10.6,8.5-16,12.8
				c-0.7,0.6-1,1.2-1,2.1c0,1,0.3,2.1-0.5,3c-1.8-1.7-2.2-3.9-1.8-6.2c0.4-2.3,0.9-4.6,1.5-6.8c0.4-1.6,1.3-3.1,1.9-4.6
				c2.4-5.6,4.9-11.2,7.4-16.8c0.2-0.5,0.5-0.9,0.8-1.3c2.7-3,5.4-6,8-9.1c1.2-1.3,2.6-2.4,3.9-3.5c3-2.5,6-5.1,9.1-7.3
				c2.9-2.1,5.9-4,9.3-5.4c0.4-0.2,0.7-0.4,1.1-0.6c11.2-7.5,22.6-14.7,34.1-21.8c2.2-1.3,4.4-2.5,6.6-3.7c0.1-0.1,0.3-0.2,0.3-0.2
				c1.2,0.4,2.6,0.6,3.3,1.7c1.4,2,2.4,4.1,2.6,6.6c0.1,1.2-0.1,2.2-1.1,3c-3.5,2.8-6.8,6-9.9,9.2s-5.7,6.8-8,10.7
				c-0.7,1.2-1.4,2.3-2.1,3.4c-0.3,0.5-0.4,0.9-0.2,1.4c0.2,0.6,0.3,1.3,0.5,2c0.3,1.3,1.1,1.8,2.5,1.4c2.6-0.6,5.2-1.6,7.9-1.9
				c3.7-0.4,7.4-0.9,11.1-0.7c0.8,0.1,1.6,0.2,2.3,0.5c1.8,0.8,3.6,1.5,5.4,2.3c1.2,0.5,2.2,1.1,3.2,1.9
				c6.9,5.3,13.3,11.2,19.6,17.1c2.5,2.4,4.7,5.2,6.5,8.3c3.1,5.3,6.1,10.7,8.4,16.5c0.6,1.6,0.5,3.2,0.2,4.7c-0.2,1-1.1,2-2.1,2.4
				c-2.6,1.1-5.3,1.6-8.1,0.4c-5.7-2.5-11.5-4.8-17.1-7.3c-3.8-1.7-7.5-3.7-11.2-5.5c-1.8-0.9-3.7-1.7-5.5-2.7
				C139.7,113,138.4,113,137.3,114.9z"/>
		</g>
	</g>
</g>
</svg>
